<svg id="Hand_Icon" data-name="Hand Icon" xmlns="http://www.w3.org/2000/svg" width="56.596" height="81.264" viewBox="0 0 56.596 81.264">
  <path id="Fill_1" data-name="Fill 1" d="M32.409,72.241a24.723,24.723,0,0,1-20.971-12.79L.659,42.141a4.367,4.367,0,0,1,1.059-5.777l1.058-.842a7.58,7.58,0,0,1,10.368.916l4.145,4.712V6.252A6.178,6.178,0,0,1,22.111.126a6.062,6.062,0,0,1,5.046,1.229,5.993,5.993,0,0,1,2.225,4.672V20.412a5.927,5.927,0,0,1,3.025-.841,6.045,6.045,0,0,1,5.684,4.045,5.928,5.928,0,0,1,3.348-1.034h.038a6.054,6.054,0,0,1,5.686,4.045,5.948,5.948,0,0,1,3.367-1.038h.019a6.087,6.087,0,0,1,4.273,1.764A5.968,5.968,0,0,1,56.6,31.61V48.163A24.1,24.1,0,0,1,41.664,70.408,24.153,24.153,0,0,1,32.409,72.241ZM7.474,36.9a4.5,4.5,0,0,0-2.81.973L3.6,38.713a1.4,1.4,0,0,0-.319,1.8l10.751,17.4a21.733,21.733,0,0,0,18.37,11.317A21.156,21.156,0,0,0,51.961,56.225a20.878,20.878,0,0,0,1.611-8.061V31.61a3.023,3.023,0,0,0-6.046,0v4.516a1.512,1.512,0,0,1-3.025,0V28.6a3.024,3.024,0,0,0-6.048,0v7.527a1.51,1.51,0,0,1-3.021,0V25.589a3.025,3.025,0,0,0-6.049,0V36.126a1.512,1.512,0,0,1-3.025,0V6.027a3.047,3.047,0,0,0-3.041-3.075,3.055,3.055,0,0,0-.617.063,3.211,3.211,0,0,0-2.39,3.238v38.9a1.494,1.494,0,0,1-.978,1.407,1.522,1.522,0,0,1-1.666-.411l-6.789-7.724A4.546,4.546,0,0,0,7.474,36.9Z" transform="translate(0 9.023)" fill="#fff"/>
  <path id="Fill_2" data-name="Fill 2" d="M1.512,7.523a1.5,1.5,0,0,0,1.069-.441,1.488,1.488,0,0,0,.443-1.064V1.505A1.512,1.512,0,0,0,0,1.505V6.017A1.509,1.509,0,0,0,1.512,7.523Z" transform="translate(21.823)" fill="#fff"/>
  <path id="Fill_3" data-name="Fill 3" d="M0,1.505A1.5,1.5,0,0,0,.443,2.57a1.517,1.517,0,0,0,1.069.441H6.045A1.505,1.505,0,1,0,6.045,0H1.512A1.509,1.509,0,0,0,0,1.505Z" transform="translate(32.409 12.038)" fill="#fff"/>
  <path id="Fill_4" data-name="Fill 4" d="M1.512,3.011H6.049A1.505,1.505,0,1,0,6.049,0H1.512a1.505,1.505,0,1,0,0,3.011Z" transform="translate(6.704 12.038)" fill="#fff"/>
  <path id="Fill_5" data-name="Fill 5" d="M3.469,5.589A1.514,1.514,0,1,0,5.615,3.453L2.591.443a1.521,1.521,0,0,0-2.146,0,1.5,1.5,0,0,0,0,2.136Z" transform="translate(11.235 3.001)" fill="#fff"/>
  <path id="Fill_6" data-name="Fill 6" d="M1.52,6.027a1.5,1.5,0,0,0,1.073-.437L5.617,2.579a1.5,1.5,0,0,0,0-2.136,1.525,1.525,0,0,0-2.149,0L.443,3.453h0a1.5,1.5,0,0,0,0,2.136,1.5,1.5,0,0,0,1.073.437Z" transform="translate(29.377 3.001)" fill="#fff"/>
</svg>
