<svg xmlns="http://www.w3.org/2000/svg" xmlns:xlink="http://www.w3.org/1999/xlink" width="23.701" height="29.338" viewBox="0 0 23.701 29.338">
  <defs>
    <clipPath id="clip-path">
      <rect id="Rectangle_967" data-name="Rectangle 967" width="23.701" height="29.338" transform="translate(-3 -3)" fill="none"/>
    </clipPath>
  </defs>
  <g id="Group_3686" data-name="Group 3686" transform="translate(3 3)" clip-path="url(#clip-path)">
    <path id="Path_3064" data-name="Path 3064" d="M107.669,119.832h0a3.729,3.729,0,1,0,2.637,1.092,3.734,3.734,0,0,0-2.637-1.092" transform="translate(-99.241 -114.343)" fill="none" stroke="#f5f5f5" stroke-width="2"/>
    <path id="Path_3065" data-name="Path 3065" d="M15.133,2.556a8.887,8.887,0,0,0-12.473,0h0A8.841,8.841,0,0,0,.1,10.33c.682,5.174,5.009,10.7,8.8,13.1,3.79-2.4,8.118-7.923,8.8-13.1a8.841,8.841,0,0,0-2.563-7.773Z" transform="translate(-0.468 -0.468)" fill="none" stroke="#f5f5f5" stroke-width="2"/>
  </g>
</svg>
